<svg width="256" height="32" viewBox="0 0 256 32" fill="none" xmlns="http://www.w3.org/2000/svg">
<path d="M10.5 15L14.1464 18.6464C14.3417 18.8417 14.6583 18.8417 14.8536 18.6464L21.5 12" stroke="#F6F9FE" stroke-width="2.25" stroke-linecap="round"/>
<rect x="1" y="1" width="30" height="30" rx="15" stroke="#52A6F8" stroke-width="2"/>
<line x1="71.5" y1="16.5" x2="32.5" y2="16.5" stroke="#52A6F8" stroke-linecap="round"/>
<line x1="111.5" y1="16.5" x2="72.5" y2="16.5" stroke="#52A6F8" stroke-linecap="round"/>
<path d="M122.5 15L126.146 18.6464C126.342 18.8417 126.658 18.8417 126.854 18.6464L133.5 12" stroke="#F6F9FE" stroke-width="2.25" stroke-linecap="round"/>
<rect x="113" y="1" width="30" height="30" rx="15" stroke="#52A6F8" stroke-width="2"/>
<line x1="183.5" y1="16.5" x2="144.5" y2="16.5" stroke="#52A6F8" stroke-linecap="round"/>
<line x1="223.5" y1="16.5" x2="184.5" y2="16.5" stroke="#52A6F8" stroke-linecap="round"/>
<rect x="224" width="32" height="32" rx="16" fill="#52A6F8"/>
<path d="M236.656 13.314C236.712 12.446 237.043 11.7693 237.65 11.284C238.266 10.7987 239.05 10.556 240.002 10.556C240.655 10.556 241.22 10.6727 241.696 10.906C242.172 11.1393 242.531 11.4567 242.774 11.858C243.016 12.2593 243.138 12.712 243.138 13.216C243.138 13.7947 242.984 14.2893 242.676 14.7C242.368 15.1107 241.999 15.386 241.57 15.526V15.582C242.12 15.75 242.55 16.058 242.858 16.506C243.166 16.9447 243.32 17.5093 243.32 18.2C243.32 18.7507 243.194 19.2407 242.942 19.67C242.69 20.0993 242.316 20.44 241.822 20.692C241.327 20.9347 240.734 21.056 240.044 21.056C239.036 21.056 238.205 20.7993 237.552 20.286C236.908 19.7633 236.562 19.0167 236.516 18.046H238.056C238.093 18.5407 238.284 18.9467 238.63 19.264C238.975 19.572 239.442 19.726 240.03 19.726C240.599 19.726 241.038 19.572 241.346 19.264C241.654 18.9467 241.808 18.5407 241.808 18.046C241.808 17.3927 241.598 16.9307 241.178 16.66C240.767 16.38 240.132 16.24 239.274 16.24H238.91V14.924H239.288C240.044 14.9147 240.618 14.7887 241.01 14.546C241.411 14.3033 241.612 13.9207 241.612 13.398C241.612 12.95 241.467 12.5953 241.178 12.334C240.888 12.0633 240.478 11.928 239.946 11.928C239.423 11.928 239.017 12.0633 238.728 12.334C238.438 12.5953 238.266 12.922 238.21 13.314H236.656Z" fill="#F6F9FE"/>
</svg>
