<svg width="256" height="32" viewBox="0 0 256 32" fill="none" xmlns="http://www.w3.org/2000/svg">
<path d="M10.5 15L14.1464 18.6464C14.3417 18.8417 14.6583 18.8417 14.8536 18.6464L21.5 12" stroke="#F6F9FE" stroke-width="2.25" stroke-linecap="round"/>
<rect x="1" y="1" width="30" height="30" rx="15" stroke="#52A6F8" stroke-width="2"/>
<line x1="71.5" y1="16.5" x2="32.5" y2="16.5" stroke="#52A6F8" stroke-linecap="round"/>
<line x1="111.5" y1="16.5" x2="72.5" y2="16.5" stroke="#52A6F8" stroke-linecap="round"/>
<rect x="112" width="32" height="32" rx="16" fill="#52A6F8"/>
<path d="M125.682 18.83C126.578 18.0553 127.283 17.4207 127.796 16.926C128.319 16.422 128.753 15.8993 129.098 15.358C129.443 14.8167 129.616 14.2753 129.616 13.734C129.616 13.174 129.481 12.7353 129.21 12.418C128.949 12.1007 128.533 11.942 127.964 11.942C127.413 11.942 126.984 12.1193 126.676 12.474C126.377 12.8193 126.219 13.286 126.2 13.874H124.66C124.688 12.81 125.005 11.998 125.612 11.438C126.228 10.8687 127.007 10.584 127.95 10.584C128.967 10.584 129.761 10.864 130.33 11.424C130.909 11.984 131.198 12.7307 131.198 13.664C131.198 14.336 131.025 14.9847 130.68 15.61C130.344 16.226 129.938 16.7813 129.462 17.276C128.995 17.7613 128.398 18.326 127.67 18.97L127.04 19.53H131.478V20.86H124.674V19.698L125.682 18.83Z" fill="#F6F9FE"/>
<line x1="183.5" y1="16.5" x2="144.5" y2="16.5" stroke="#636D8F" stroke-opacity="0.4" stroke-linecap="round"/>
<line x1="223.5" y1="16.5" x2="184.5" y2="16.5" stroke="#636D8F" stroke-opacity="0.4" stroke-linecap="round"/>
<path d="M236.312 13.314C236.368 12.446 236.699 11.7693 237.306 11.284C237.922 10.7987 238.706 10.556 239.658 10.556C240.311 10.556 240.876 10.6727 241.352 10.906C241.828 11.1393 242.187 11.4567 242.43 11.858C242.673 12.2593 242.794 12.712 242.794 13.216C242.794 13.7947 242.64 14.2893 242.332 14.7C242.024 15.1107 241.655 15.386 241.226 15.526V15.582C241.777 15.75 242.206 16.058 242.514 16.506C242.822 16.9447 242.976 17.5093 242.976 18.2C242.976 18.7507 242.85 19.2407 242.598 19.67C242.346 20.0993 241.973 20.44 241.478 20.692C240.983 20.9347 240.391 21.056 239.7 21.056C238.692 21.056 237.861 20.7993 237.208 20.286C236.564 19.7633 236.219 19.0167 236.172 18.046H237.712C237.749 18.5407 237.941 18.9467 238.286 19.264C238.631 19.572 239.098 19.726 239.686 19.726C240.255 19.726 240.694 19.572 241.002 19.264C241.31 18.9467 241.464 18.5407 241.464 18.046C241.464 17.3927 241.254 16.9307 240.834 16.66C240.423 16.38 239.789 16.24 238.93 16.24H238.566V14.924H238.944C239.7 14.9147 240.274 14.7887 240.666 14.546C241.067 14.3033 241.268 13.9207 241.268 13.398C241.268 12.95 241.123 12.5953 240.834 12.334C240.545 12.0633 240.134 11.928 239.602 11.928C239.079 11.928 238.673 12.0633 238.384 12.334C238.095 12.5953 237.922 12.922 237.866 13.314H236.312Z" fill="#7D87AA"/>
<rect x="225" y="1" width="30" height="30" rx="15" stroke="#7D87AA" stroke-width="2"/>
</svg>
