<svg width="256" height="32" viewBox="0 0 256 32" fill="none" xmlns="http://www.w3.org/2000/svg">
<rect width="32" height="32" rx="16" fill="#52A6F8"/>
<path d="M14.1827 12.25V10.794H17.0947V21H15.4847V12.25H14.1827Z" fill="#F6F9FE"/>
<line x1="71.5" y1="16.5" x2="32.5" y2="16.5" stroke="#636D8F" stroke-opacity="0.4" stroke-linecap="round"/>
<line x1="111.5" y1="16.5" x2="72.5" y2="16.5" stroke="#636D8F" stroke-opacity="0.4" stroke-linecap="round"/>
<path d="M125.222 18.83C126.118 18.0553 126.823 17.4207 127.336 16.926C127.859 16.422 128.293 15.8993 128.638 15.358C128.983 14.8167 129.156 14.2753 129.156 13.734C129.156 13.174 129.021 12.7353 128.75 12.418C128.489 12.1007 128.073 11.942 127.504 11.942C126.953 11.942 126.524 12.1193 126.216 12.474C125.917 12.8193 125.759 13.286 125.74 13.874H124.2C124.228 12.81 124.545 11.998 125.152 11.438C125.768 10.8687 126.547 10.584 127.49 10.584C128.507 10.584 129.301 10.864 129.87 11.424C130.449 11.984 130.738 12.7307 130.738 13.664C130.738 14.336 130.565 14.9847 130.22 15.61C129.884 16.226 129.478 16.7813 129.002 17.276C128.535 17.7613 127.938 18.326 127.21 18.97L126.58 19.53H131.018V20.86H124.214V19.698L125.222 18.83Z" fill="#7D87AA"/>
<rect x="113" y="1" width="30" height="30" rx="15" stroke="#7D87AA" stroke-width="2"/>
<line x1="183.5" y1="16.5" x2="144.5" y2="16.5" stroke="#636D8F" stroke-opacity="0.4" stroke-linecap="round"/>
<line x1="223.5" y1="16.5" x2="184.5" y2="16.5" stroke="#636D8F" stroke-opacity="0.4" stroke-linecap="round"/>
<path d="M236.312 13.314C236.368 12.446 236.699 11.7693 237.306 11.284C237.922 10.7987 238.706 10.556 239.658 10.556C240.311 10.556 240.876 10.6727 241.352 10.906C241.828 11.1393 242.187 11.4567 242.43 11.858C242.673 12.2593 242.794 12.712 242.794 13.216C242.794 13.7947 242.64 14.2893 242.332 14.7C242.024 15.1107 241.655 15.386 241.226 15.526V15.582C241.777 15.75 242.206 16.058 242.514 16.506C242.822 16.9447 242.976 17.5093 242.976 18.2C242.976 18.7507 242.85 19.2407 242.598 19.67C242.346 20.0993 241.973 20.44 241.478 20.692C240.983 20.9347 240.391 21.056 239.7 21.056C238.692 21.056 237.861 20.7993 237.208 20.286C236.564 19.7633 236.219 19.0167 236.172 18.046H237.712C237.749 18.5407 237.941 18.9467 238.286 19.264C238.631 19.572 239.098 19.726 239.686 19.726C240.255 19.726 240.694 19.572 241.002 19.264C241.31 18.9467 241.464 18.5407 241.464 18.046C241.464 17.3927 241.254 16.9307 240.834 16.66C240.423 16.38 239.789 16.24 238.93 16.24H238.566V14.924H238.944C239.7 14.9147 240.274 14.7887 240.666 14.546C241.067 14.3033 241.268 13.9207 241.268 13.398C241.268 12.95 241.123 12.5953 240.834 12.334C240.545 12.0633 240.134 11.928 239.602 11.928C239.079 11.928 238.673 12.0633 238.384 12.334C238.095 12.5953 237.922 12.922 237.866 13.314H236.312Z" fill="#7D87AA"/>
<rect x="225" y="1" width="30" height="30" rx="15" stroke="#7D87AA" stroke-width="2"/>
</svg>
