<svg width="40" height="40" viewBox="0 0 40 40" fill="none" xmlns="http://www.w3.org/2000/svg">
<rect width="40" height="40" rx="20" fill="#F6F9FE"/>
<path d="M26.1597 16.7199C26.4797 16.3999 26.4797 15.9199 26.1597 15.5999L22.7998 12.24C22.4798 11.92 21.9998 11.92 21.6798 12.24L19.4398 14.4799L23.9998 19.0399L26.1597 16.7199ZM14.4 24.7997H17.7599C17.9999 24.7997 18.1599 24.7197 18.3199 24.5597L22.7198 20.1598L18.2399 15.5999L13.84 19.9998C13.68 20.1598 13.6 20.3998 13.6 20.6398V23.9998C13.6 24.4797 13.92 24.7997 14.4 24.7997ZM27.1997 26.3997H12.8C12.32 26.3997 12 26.7197 12 27.1997C12 27.6797 12.32 27.9997 12.8 27.9997H27.1997C27.6797 27.9997 27.9997 27.6797 27.9997 27.1997C27.9997 26.7197 27.6797 26.3997 27.1997 26.3997Z" fill="#52A6F8"/>
</svg>
