<svg width="80" height="80" viewBox="0 0 80 80" fill="none" xmlns="http://www.w3.org/2000/svg">
<circle cx="40" cy="40" r="40" fill="#52A6F8" fill-opacity="0.2"/>
<g clip-path="url(#clip0_2019_672)">
<path d="M59.8905 39.5125C59.8284 39.3733 59.7413 39.2466 59.6333 39.1389C54.5169 34.0468 54.6295 34.0593 54.2792 33.9126L45.5225 29.9345C45.229 29.7802 44.8861 29.7485 44.5691 29.8464C44.2522 29.9443 43.9873 30.1639 43.8326 30.4567C43.6779 30.7495 43.6461 31.0917 43.7443 31.4079C43.8424 31.7241 44.0625 31.9884 44.356 32.1428C44.4014 32.167 44.4485 32.1881 44.4967 32.2059L50.7515 35.039L39.9808 39.9064L29.2476 35.039L35.5024 32.2059C35.7841 32.0578 35.9986 31.8081 36.1021 31.5077C36.2057 31.2073 36.1905 30.8788 36.0597 30.5891C35.9289 30.2995 35.6923 30.0705 35.3982 29.9489C35.104 29.8272 34.7744 29.8221 34.4766 29.9345C28.5502 32.6178 25.7137 33.9189 25.7137 33.9189C25.4213 34.0647 25.5213 34.014 20.3659 39.1451C20.2225 39.2882 20.1162 39.464 20.0561 39.6573C19.996 39.8505 19.9839 40.0555 20.0208 40.2544C20.0577 40.4534 20.1426 40.6404 20.2681 40.7994C20.3936 40.9583 20.5559 41.0845 20.7411 41.1669L34.5016 47.4072C34.7329 47.5126 34.9909 47.5451 35.2412 47.5005C35.4915 47.4559 35.7223 47.3363 35.9027 47.1576L38.7298 44.2871V56.7676L27.4713 51.713V47.5133C27.4713 47.1823 27.3395 46.8648 27.1049 46.6308C26.8703 46.3967 26.5521 46.2652 26.2203 46.2652C25.8885 46.2652 25.5704 46.3967 25.3358 46.6308C25.1012 46.8648 24.9694 47.1823 24.9694 47.5133C24.9694 53.0296 24.9694 52.7551 25.1945 53.1794C25.2721 53.341 25.4053 53.4694 25.5698 53.5413C25.6949 53.6287 25.5698 53.6038 25.7324 53.6537C40.7189 60.4399 39.593 59.9938 39.9808 59.9938C40.3686 59.9938 39.3553 60.3931 54.2542 53.6412C54.4737 53.5428 54.66 53.3833 54.7909 53.1818C54.9218 52.9804 54.9917 52.7455 54.9922 52.5055V43.0952L59.258 41.1607C59.5609 41.0258 59.7977 40.7764 59.9164 40.4673C60.035 40.1582 60.0257 39.8147 59.8905 39.5125ZM34.6986 44.7676L23.4401 39.6381L26.4893 36.5304L37.8104 41.6599L34.6986 44.7676ZM52.4872 51.7098L41.2286 56.8144V44.3339C44.306 47.3541 44.2935 47.5164 44.9815 47.5164C45.3943 47.5164 45.069 47.6038 52.4872 44.234V51.7098ZM45.2567 44.7676L42.1418 41.6599L53.4629 36.5304L56.5778 39.6381L45.2567 44.7676Z" fill="#52A6F8"/>
<path d="M56.5809 39.6381L45.2598 44.7676L42.1449 41.6599L53.466 36.5305L56.5809 39.6381Z" fill="#52A6F8"/>
<path d="M52.4904 44.2309V51.7067L41.2318 56.8112V44.3307C44.3092 47.351 44.2966 47.5133 44.9847 47.5133C45.3975 47.5133 45.0722 47.6006 52.4904 44.2309Z" fill="#52A6F8" fill-opacity="0.5"/>
<path d="M37.8167 41.6599L34.7018 44.7676L23.4432 39.6381L26.4956 36.5305L37.8167 41.6599Z" fill="#52A6F8"/>
<path d="M38.7298 31.1763C38.7464 30.3538 38.9883 29.5514 39.4294 28.8562C39.8704 28.161 40.4937 27.5995 41.2318 27.2325C41.6563 27.0053 42.0068 26.6616 42.2418 26.242C42.4768 25.8223 42.5865 25.3443 42.5578 24.8645C42.5292 24.3847 42.3634 23.9231 42.0801 23.5343C41.7968 23.1454 41.4079 22.8457 40.9593 22.6704C40.5106 22.4951 40.0211 22.4517 39.5485 22.5452C39.0759 22.6387 38.64 22.8652 38.2924 23.198C37.9448 23.5308 37.6999 23.956 37.5868 24.4232C37.4737 24.8905 37.497 25.3803 37.654 25.8347C37.7107 25.9891 37.7362 26.1532 37.7289 26.3174C37.7216 26.4817 37.6818 26.6429 37.6116 26.7917C37.5415 26.9405 37.4425 27.0739 37.3203 27.1843C37.1981 27.2946 37.0552 27.3797 36.8998 27.4346C36.7445 27.4895 36.5797 27.5131 36.4152 27.504C36.2506 27.4949 36.0895 27.4534 35.9411 27.3818C35.7928 27.3102 35.6601 27.2099 35.5509 27.0868C35.4416 26.9637 35.3579 26.8202 35.3046 26.6646V26.6584C34.9861 25.7603 34.9318 24.7899 35.1483 23.862C35.3647 22.9341 35.8427 22.0874 36.5259 21.4217C37.209 20.7561 38.0689 20.2994 39.0038 20.1056C39.9387 19.9117 40.9098 19.9889 41.8022 20.3278C42.6946 20.6668 43.4712 21.2534 44.0402 22.0185C44.6093 22.7836 44.947 23.6951 45.0135 24.6455C45.0801 25.5959 44.8726 26.5454 44.4157 27.382C43.9588 28.2186 43.2715 28.9072 42.435 29.3667C42.0876 29.5292 41.7917 29.784 41.5798 30.1032C41.368 30.4225 41.2484 30.7938 41.2341 31.1763C41.2341 31.5073 41.1023 31.8248 40.8677 32.0588C40.6331 32.2929 40.3149 32.4244 39.9831 32.4244C39.6514 32.4244 39.3332 32.2929 39.0986 32.0588C38.864 31.8248 38.7322 31.5073 38.7322 31.1763H38.7298Z" fill="#52A6F8"/>
<path d="M39.9808 36.2808C39.7334 36.2808 39.4915 36.2076 39.2858 36.0705C39.0801 35.9334 38.9198 35.7384 38.8251 35.5104C38.7304 35.2823 38.7056 35.0314 38.7539 34.7893C38.8022 34.5472 38.9213 34.3248 39.0963 34.1503C39.2712 33.9757 39.4941 33.8569 39.7368 33.8087C39.9794 33.7606 40.231 33.7853 40.4595 33.8797C40.6881 33.9742 40.8835 34.1342 41.0209 34.3394C41.1584 34.5446 41.2318 34.7859 41.2318 35.0328C41.2318 35.3638 41.1 35.6812 40.8654 35.9153C40.6308 36.1493 40.3126 36.2808 39.9808 36.2808Z" fill="#52A6F8"/>
</g>
<defs>
<clipPath id="clip0_2019_672">
<rect width="40" height="40" fill="white" transform="translate(20 20)"/>
</clipPath>
</defs>
</svg>
