<svg width="104" height="104" viewBox="0 0 104 104" fill="none" xmlns="http://www.w3.org/2000/svg">
<circle cx="52" cy="52" r="52" fill="#7D87AA"/>
<path d="M65.9398 33.2998H39.0598C37.5322 33.2998 36.0671 33.9067 34.9869 34.9869C33.9067 36.0671 33.2998 37.5322 33.2998 39.0598V65.9398C33.2998 67.4675 33.9067 68.9325 34.9869 70.0127C36.0671 71.093 37.5322 71.6998 39.0598 71.6998H65.9398C66.2556 71.6954 66.5704 71.6633 66.8806 71.6038L67.4566 71.4694H67.591H67.687L68.3974 71.2006L68.647 71.0662C68.839 70.951 69.0502 70.855 69.2422 70.7206C69.4986 70.532 69.7423 70.3267 69.9718 70.1062L70.1062 69.9334C70.2947 69.7424 70.468 69.537 70.6246 69.319L70.7974 69.0694C70.9315 68.8556 71.0471 68.6308 71.143 68.3974C71.1957 68.3053 71.2406 68.209 71.2774 68.1094C71.3734 67.879 71.431 67.6294 71.5078 67.3798V67.0918C71.6167 66.7166 71.6811 66.33 71.6998 65.9398V39.0598C71.6998 37.5322 71.093 36.0671 70.0127 34.9869C68.9325 33.9067 67.4675 33.2998 65.9398 33.2998ZM39.0598 67.8598C38.5506 67.8598 38.0622 67.6575 37.7022 67.2975C37.3421 66.9374 37.1398 66.449 37.1398 65.9398V57.6646L43.4566 51.3286C43.6351 51.1486 43.8474 51.0058 44.0814 50.9083C44.3154 50.8109 44.5663 50.7607 44.8198 50.7607C45.0733 50.7607 45.3242 50.8109 45.5582 50.9083C45.7922 51.0058 46.0045 51.1486 46.183 51.3286L62.695 67.8598H39.0598ZM67.8598 65.9398C67.858 66.1765 67.8124 66.4109 67.7254 66.631C67.6815 66.7246 67.6302 66.8145 67.5718 66.8998C67.5204 66.9811 67.4627 67.0581 67.399 67.1302L57.127 56.8582L58.8166 55.1686C58.9951 54.9886 59.2074 54.8458 59.4414 54.7483C59.6754 54.6509 59.9263 54.6007 60.1798 54.6007C60.4333 54.6007 60.6842 54.6509 60.9182 54.7483C61.1522 54.8458 61.3645 54.9886 61.543 55.1686L67.8598 61.5046V65.9398ZM67.8598 56.071L64.2502 52.4998C63.1514 51.4572 61.6945 50.876 60.1798 50.876C58.6651 50.876 57.2082 51.4572 56.1094 52.4998L54.4198 54.1894L48.8902 48.6598C47.7914 47.6172 46.3345 47.036 44.8198 47.036C43.3051 47.036 41.8482 47.6172 40.7494 48.6598L37.1398 52.231V39.0598C37.1398 38.5506 37.3421 38.0622 37.7022 37.7022C38.0622 37.3421 38.5506 37.1398 39.0598 37.1398H65.9398C66.449 37.1398 66.9374 37.3421 67.2975 37.7022C67.6575 38.0622 67.8598 38.5506 67.8598 39.0598V56.071ZM55.3798 40.9798C54.8102 40.9798 54.2534 41.1487 53.7798 41.4652C53.3062 41.7816 52.937 42.2314 52.719 42.7577C52.5011 43.2839 52.444 43.863 52.5551 44.4217C52.6663 44.9803 52.9406 45.4935 53.3433 45.8963C53.7461 46.299 54.2593 46.5733 54.8179 46.6845C55.3766 46.7956 55.9557 46.7386 56.4819 46.5206C57.0082 46.3026 57.458 45.9335 57.7744 45.4598C58.0909 44.9862 58.2598 44.4294 58.2598 43.8598C58.2598 43.096 57.9564 42.3634 57.4163 41.8233C56.8762 41.2832 56.1436 40.9798 55.3798 40.9798Z" fill="#F6F9FE"/>
</svg>
