<svg width="28" height="28" viewBox="0 0 28 28" fill="currentColor" xmlns="http://www.w3.org/2000/svg">
<path fill-rule="evenodd" clip-rule="evenodd" d="M6.8251 7C6.14855 7 5.6001 7.54845 5.6001 8.225C5.6001 8.90155 6.14855 9.45 6.8251 9.45C7.50165 9.45 8.0501 8.90155 8.0501 8.225C8.0501 7.54845 7.50165 7 6.8251 7ZM11.0251 7C10.3485 7 9.8001 7.54845 9.8001 8.225C9.8001 8.90155 10.3485 9.45 11.0251 9.45H22.5751C23.2516 9.45 23.8001 8.90155 23.8001 8.225C23.8001 7.54845 23.2516 7 22.5751 7H11.0251ZM9.8001 13.825C9.8001 13.1485 10.3485 12.6 11.0251 12.6H22.5751C23.2516 12.6 23.8001 13.1485 23.8001 13.825C23.8001 14.5015 23.2516 15.05 22.5751 15.05H11.0251C10.3485 15.05 9.8001 14.5015 9.8001 13.825ZM6.8251 12.6C6.14855 12.6 5.6001 13.1485 5.6001 13.825C5.6001 14.5015 6.14855 15.05 6.8251 15.05C7.50165 15.05 8.0501 14.5015 8.0501 13.825C8.0501 13.1485 7.50165 12.6 6.8251 12.6ZM9.8001 19.425C9.8001 18.7485 10.3485 18.2 11.0251 18.2H22.5751C23.2516 18.2 23.8001 18.7485 23.8001 19.425C23.8001 20.1015 23.2516 20.65 22.5751 20.65H11.0251C10.3485 20.65 9.8001 20.1015 9.8001 19.425ZM6.8251 18.2C6.14855 18.2 5.6001 18.7485 5.6001 19.425C5.6001 20.1015 6.14855 20.65 6.8251 20.65C7.50165 20.65 8.0501 20.1015 8.0501 19.425C8.0501 18.7485 7.50165 18.2 6.8251 18.2Z" fill="currentColor"/>
</svg>
