<svg width="20" height="20" viewBox="0 0 20 20" fill="currentColor" xmlns="http://www.w3.org/2000/svg">
<path d="M1 15.2338V16.7292C1 17.9685 4.03923 19 7.75692 19C11.4746 19 14.4862 17.9962 14.4862 16.7569V15.2338C13.0392 16.2515 10.3946 16.7292 7.75692 16.7292C5.11923 16.7292 2.47462 16.2308 1 15.2338ZM12.2154 5.54154C15.9331 5.54154 18.9446 4.53769 18.9446 3.29846C18.9446 2.05923 15.9608 1 12.2431 1C8.52538 1 5.51385 2.00385 5.51385 3.24308C5.51385 4.48231 8.52538 5.51385 12.2431 5.51385L12.2154 5.54154ZM1 11.5577V13.3646C1 14.6038 4.01154 15.6077 7.72923 15.6077C11.4469 15.6077 14.4585 14.6038 14.4585 13.3646V11.5577C13.0115 12.7485 10.36 13.3646 7.72923 13.3646C5.09846 13.3646 2.47462 12.7692 1 11.5577ZM15.58 11.9385C17.6154 11.5508 19 10.8308 19 10V8.50462C17.9767 9.14039 16.8297 9.55103 15.6354 9.70923L15.58 11.9385ZM7.75692 6.63538C4.03923 6.63538 1 7.92308 1 9.43923C1 10.9554 4.01154 12.2085 7.72923 12.2085C11.4469 12.2085 14.4585 10.9554 14.4585 9.43923C14.4585 7.92308 11.4746 6.63538 7.75692 6.63538ZM15.4415 8.61539C17.5185 8.23462 18.9723 7.49385 18.9723 6.64231V5.15385C17.7262 6.03308 15.5869 6.50385 13.3369 6.61462C14.2688 6.98739 15.0221 7.70353 15.4415 8.61539Z" fill="currentColor"/>
</svg>
