<svg width="81" height="80" viewBox="0 0 81 80" fill="none" xmlns="http://www.w3.org/2000/svg">
<circle cx="40.5" cy="40" r="40" fill="#52A6F8" fill-opacity="0.2"/>
<g clip-path="url(#clip0_418_3021)">
<path d="M60.3906 39.5125C60.3286 39.3733 60.2414 39.2466 60.1334 39.1389C55.017 34.0468 55.1296 34.0593 54.7793 33.9126L46.0226 29.9345C45.7291 29.7802 45.3862 29.7485 45.0693 29.8464C44.7523 29.9443 44.4874 30.1639 44.3327 30.4567C44.178 30.7495 44.1462 31.0917 44.2444 31.4079C44.3426 31.7241 44.5626 31.9884 44.8561 32.1428C44.9016 32.167 44.9486 32.1881 44.9969 32.2059L51.2516 35.039L40.4809 39.9064L29.7477 35.039L36.0025 32.2059C36.2842 32.0578 36.4987 31.8081 36.6023 31.5077C36.7058 31.2073 36.6906 30.8788 36.5598 30.5891C36.429 30.2995 36.1925 30.0705 35.8983 29.9489C35.6041 29.8272 35.2746 29.8221 34.9767 29.9345C29.0503 32.6178 26.2138 33.9189 26.2138 33.9189C25.9214 34.0647 26.0215 34.014 20.866 39.1451C20.7226 39.2882 20.6163 39.464 20.5562 39.6573C20.4961 39.8505 20.484 40.0555 20.5209 40.2544C20.5578 40.4534 20.6427 40.6404 20.7682 40.7994C20.8937 40.9583 21.056 41.0845 21.2413 41.1669L35.0017 47.4072C35.233 47.5126 35.491 47.5451 35.7413 47.5005C35.9916 47.4559 36.2224 47.3363 36.4028 47.1576L39.23 44.2871V56.7676L27.9714 51.713V47.5133C27.9714 47.1823 27.8396 46.8648 27.605 46.6308C27.3704 46.3967 27.0522 46.2652 26.7204 46.2652C26.3887 46.2652 26.0705 46.3967 25.8359 46.6308C25.6013 46.8648 25.4695 47.1823 25.4695 47.5133C25.4695 53.0296 25.4695 52.7551 25.6947 53.1794C25.7723 53.341 25.9054 53.4694 26.0699 53.5413C26.195 53.6287 26.0699 53.6038 26.2326 53.6537C41.219 60.4399 40.0931 59.9938 40.4809 59.9938C40.8687 59.9938 39.8554 60.3931 54.7543 53.6412C54.9738 53.5428 55.1601 53.3833 55.2911 53.1818C55.422 52.9804 55.4919 52.7455 55.4924 52.5055V43.0952L59.7581 41.1607C60.061 41.0258 60.2979 40.7764 60.4165 40.4673C60.5351 40.1582 60.5258 39.8147 60.3906 39.5125ZM35.1988 44.7676L23.9402 39.6381L26.9894 36.5304L38.3105 41.6599L35.1988 44.7676ZM52.9873 51.7098L41.7287 56.8144V44.3339C44.8061 47.3541 44.7936 47.5164 45.4816 47.5164C45.8944 47.5164 45.5692 47.6038 52.9873 44.234V51.7098ZM45.7568 44.7676L42.6419 41.6599L53.9631 36.5304L57.0779 39.6381L45.7568 44.7676Z" fill="#52A6F8"/>
<path d="M57.081 39.6379L45.7599 44.7674L42.645 41.6598L53.9662 36.5303L57.081 39.6379Z" fill="#52A6F8"/>
<path d="M52.9905 44.231V51.7068L41.7319 56.8113V44.3308C44.8093 47.3511 44.7968 47.5133 45.4848 47.5133C45.8976 47.5133 45.5724 47.6007 52.9905 44.231Z" fill="#52A6F8" fill-opacity="0.5"/>
<path d="M38.3168 41.6598L35.2019 44.7674L23.9434 39.6379L26.9957 36.5303L38.3168 41.6598Z" fill="#52A6F8"/>
<path d="M39.2298 31.1762C39.2464 30.3536 39.4883 29.5512 39.9294 28.856C40.3704 28.1608 40.9937 27.5993 41.7318 27.2323C42.1563 27.0051 42.5068 26.6614 42.7418 26.2418C42.9768 25.8221 43.0865 25.3442 43.0578 24.8643C43.0292 24.3845 42.8634 23.9229 42.5801 23.5341C42.2968 23.1453 41.9079 22.8455 41.4593 22.6702C41.0106 22.4949 40.5211 22.4515 40.0485 22.545C39.5759 22.6385 39.14 22.865 38.7924 23.1978C38.4448 23.5306 38.1999 23.9558 38.0868 24.423C37.9737 24.8903 37.997 25.3801 38.154 25.8345C38.2107 25.9889 38.2362 26.153 38.2289 26.3172C38.2216 26.4815 38.1818 26.6427 38.1116 26.7915C38.0415 26.9403 37.9425 27.0737 37.8203 27.1841C37.6981 27.2944 37.5552 27.3795 37.3998 27.4344C37.2445 27.4893 37.0797 27.5129 36.9152 27.5038C36.7506 27.4948 36.5895 27.4532 36.4411 27.3816C36.2928 27.31 36.1601 27.2097 36.0509 27.0866C35.9416 26.9635 35.8579 26.82 35.8046 26.6645V26.6582C35.4861 25.7601 35.4318 24.7898 35.6483 23.8618C35.8647 22.9339 36.3427 22.0872 37.0259 21.4215C37.709 20.7559 38.5689 20.2992 39.5038 20.1054C40.4387 19.9116 41.4098 19.9887 42.3022 20.3276C43.1946 20.6666 43.9712 21.2533 44.5402 22.0183C45.1093 22.7834 45.447 23.6949 45.5135 24.6453C45.5801 25.5957 45.3726 26.5452 44.9157 27.3818C44.4588 28.2184 43.7715 28.907 42.935 29.3665C42.5876 29.529 42.2917 29.7838 42.0798 30.1031C41.868 30.4223 41.7484 30.7936 41.7341 31.1762C41.7341 31.5072 41.6023 31.8246 41.3677 32.0587C41.1331 32.2927 40.8149 32.4242 40.4831 32.4242C40.1514 32.4242 39.8332 32.2927 39.5986 32.0587C39.364 31.8246 39.2322 31.5072 39.2322 31.1762H39.2298Z" fill="#52A6F8"/>
<path d="M40.4809 36.2808C40.2335 36.2808 39.9917 36.2076 39.7859 36.0704C39.5802 35.9333 39.4199 35.7384 39.3252 35.5103C39.2305 35.2823 39.2057 35.0313 39.254 34.7892C39.3023 34.5471 39.4214 34.3248 39.5964 34.1502C39.7713 33.9757 39.9942 33.8568 40.2369 33.8086C40.4795 33.7605 40.7311 33.7852 40.9597 33.8797C41.1882 33.9741 41.3836 34.1341 41.5211 34.3393C41.6585 34.5446 41.7319 34.7859 41.7319 35.0327C41.7319 35.3637 41.6001 35.6812 41.3655 35.9152C41.1309 36.1493 40.8127 36.2808 40.4809 36.2808Z" fill="#52A6F8"/>
</g>
<defs>
<clipPath id="clip0_418_3021">
<rect width="40" height="40" fill="white" transform="translate(20.5 20)"/>
</clipPath>
</defs>
</svg>
