<svg width="20" height="21" viewBox="0 0 20 21" fill="currentColor" xmlns="http://www.w3.org/2000/svg">
<path d="M18.3328 17.4085L15.1999 14.3418C16.416 12.8455 17.0049 10.9462 16.8456 9.03458C16.6862 7.12292 15.7907 5.34415 14.3432 4.06403C12.8957 2.78392 11.0062 2.09976 9.06326 2.15222C7.12029 2.20469 5.27153 2.9898 3.89713 4.34612C2.52273 5.70243 1.72716 7.52686 1.67399 9.44427C1.62082 11.3617 2.31411 13.2263 3.61129 14.6548C4.90847 16.0832 6.71096 16.9669 8.64811 17.1242C10.5853 17.2814 12.5098 16.7002 14.0261 15.5002L17.1337 18.5668C17.2122 18.6449 17.3056 18.7069 17.4085 18.7492C17.5114 18.7915 17.6218 18.8133 17.7332 18.8133C17.8447 18.8133 17.9551 18.7915 18.058 18.7492C18.1609 18.7069 18.2543 18.6449 18.3328 18.5668C18.485 18.4114 18.5701 18.2038 18.5701 17.9877C18.5701 17.7716 18.485 17.5639 18.3328 17.4085ZM9.28879 15.5002C8.11968 15.5002 6.97683 15.158 6.00475 14.5171C5.03268 13.8761 4.27503 12.9651 3.82764 11.8992C3.38024 10.8333 3.26318 9.66036 3.49126 8.5288C3.71934 7.39725 4.28232 6.35785 5.109 5.54204C5.93569 4.72624 6.98895 4.17066 8.13559 3.94558C9.28223 3.7205 10.4708 3.83602 11.5509 4.27753C12.631 4.71904 13.5542 5.46672 14.2037 6.426C14.8532 7.38529 15.1999 8.51311 15.1999 9.66683C15.1999 11.2139 14.5771 12.6977 13.4686 13.7916C12.36 14.8856 10.8565 15.5002 9.28879 15.5002Z" fill="currentColor"/>
</svg>
