<svg width="20" height="21" viewBox="0 0 20 21" fill="none" xmlns="http://www.w3.org/2000/svg">
<circle cx="10" cy="10.5" r="8" fill="#52A6F8"/>
<path d="M10.0001 15C9.86882 15.0001 9.73877 14.9742 9.61744 14.924C9.4961 14.8737 9.38585 14.8001 9.29299 14.7071C9.20014 14.6142 9.1265 14.5039 9.07628 14.3825C9.02606 14.2611 9.00025 14.1309 9.00032 13.9995V9.99772C9.00032 9.73238 9.10566 9.47791 9.29316 9.29029C9.48066 9.10267 9.73497 8.99726 10.0001 8.99726C10.2653 8.99726 10.5196 9.10267 10.7071 9.29029C10.8946 9.47791 11 9.73238 11 9.99772V13.9995C11 14.1309 10.9742 14.2611 10.924 14.3825C10.8738 14.5039 10.8001 14.6142 10.7073 14.7071C10.6144 14.8001 10.5042 14.8737 10.3828 14.924C10.2615 14.9742 10.1315 15.0001 10.0001 15ZM10.0001 7.99635C9.86952 7.99475 9.74048 7.96753 9.62033 7.91624C9.4991 7.86566 9.38746 7.79462 9.29027 7.70622C9.19713 7.61309 9.12351 7.50229 9.07372 7.38031C9.02393 7.25834 8.99898 7.12765 9.00032 6.9959C8.99667 6.86466 9.0241 6.73443 9.08039 6.61584C9.13093 6.49454 9.20193 6.38283 9.29027 6.28557C9.38583 6.19506 9.49787 6.12374 9.62029 6.07548C9.86351 5.97484 10.1367 5.97484 10.3799 6.07548C10.5022 6.12398 10.6142 6.19527 10.7099 6.28557C10.8925 6.47741 10.996 6.73104 11 6.9959C11.0012 7.12763 10.9762 7.2583 10.9265 7.38026C10.8767 7.50222 10.8031 7.61302 10.71 7.70618C10.6169 7.79934 10.5061 7.87298 10.3843 7.92281C10.2624 7.97263 10.1318 7.99763 10.0001 7.99635Z" fill="#F6F9FE"/>
</svg>
