<svg width="20" height="20" viewBox="0 0 20 20" fill="currentColor" xmlns="http://www.w3.org/2000/svg">
<path fill-rule="evenodd" clip-rule="evenodd" d="M2.99206 11.6883C3.03946 16.5066 7.1493 18.3259 9.0445 18.3259L9.45154 18.3259H9.04445C5.92481 15.9877 7.70693 11.682 10.9134 9.98215C10.9 10.0565 10.8765 10.1476 10.8494 10.2527C10.649 11.0306 10.2517 12.5726 12.2703 13.734C14.0025 14.7306 13.9277 17.3055 12.0295 18.3259H12.0295C15.5356 18.3259 17.7015 15.1668 17.7826 12.7639C17.8855 9.71885 16.4273 8.42078 14.7827 6.95679C14.4621 6.67146 14.1345 6.37982 13.81 6.06771C11.5197 3.86499 13.9049 1.24023 13.9049 1.24023C7.60334 1.34167 2.94466 6.87007 2.99206 11.6883Z" fill="currentColor"/>
</svg>
