<svg width="20" height="20" viewBox="0 0 20 20" fill="currentColor" xmlns="http://www.w3.org/2000/svg">
<path fill-rule="evenodd" clip-rule="evenodd" d="M8.87038 18.9393C8.97004 18.98 9.07675 19.0006 9.1844 19C9.29205 19.0006 9.39876 18.98 9.49842 18.9393C9.59808 18.8985 9.68872 18.8385 9.76515 18.7627L18.7628 9.76273C18.8386 9.68628 18.8986 9.59561 18.9393 9.49592C18.98 9.39624 19.0006 9.2895 19 9.18182V1.81819C19 1.6012 18.9138 1.39309 18.7604 1.23965C18.607 1.08621 18.399 1.00001 18.182 1.00001H10.8203C10.7127 0.999391 10.606 1.02003 10.5063 1.06075C10.4066 1.10146 10.316 1.16146 10.2396 1.23729L1.24195 10.2373C1.16529 10.3133 1.10443 10.4038 1.06291 10.5035C1.02138 10.6032 1 10.7102 1 10.8182C1 10.9262 1.02138 11.0331 1.06291 11.1328C1.10443 11.2325 1.16529 11.323 1.24195 11.3991L8.60364 18.7627C8.68007 18.8385 8.77072 18.8985 8.87038 18.9393ZM14.5 7C15.3284 7 16 6.32843 16 5.5C16 4.67157 15.3284 4 14.5 4C13.6716 4 13 4.67157 13 5.5C13 6.32843 13.6716 7 14.5 7Z" fill="currentColor"/>
</svg>
