<svg width="20" height="20" viewBox="0 0 20 20" fill="currentColor" xmlns="http://www.w3.org/2000/svg">
<path d="M19.975 9.42513C19.8574 8.42299 19.4616 7.47379 18.8325 6.68495C18.2033 5.8961 17.3659 5.29912 16.415 4.96157C15.4642 4.62402 14.4378 4.55937 13.4521 4.77494C12.4663 4.99052 11.5607 5.47771 10.8375 6.18138L13.2938 9.03763L13.3375 8.98763C13.4948 8.80156 13.6911 8.65244 13.9126 8.5509C14.134 8.44935 14.3751 8.39787 14.6187 8.40013C15.0118 8.38047 15.3977 8.51091 15.6983 8.76504C15.9988 9.01916 16.1915 9.37799 16.2375 9.76888C16.2437 9.84388 16.25 9.92513 16.25 9.98763C16.2485 10.2029 16.2037 10.4156 16.1184 10.6132C16.033 10.8108 15.9088 10.9893 15.7532 11.1379C15.5975 11.2866 15.4136 11.4025 15.2122 11.4786C15.0109 11.5548 14.7963 11.5898 14.5813 11.5814C14.3409 11.5856 14.1028 11.5349 13.8851 11.4331C13.6674 11.3313 13.4758 11.181 13.325 10.9939C12.7887 10.3689 10.0256 7.14825 9.3125 6.32513C8.80691 5.79153 8.19707 5.36752 7.52081 5.07939C6.84456 4.79125 6.11631 4.64514 5.38125 4.65013C4.05204 4.62834 2.76327 5.10734 1.77095 5.99198C0.778627 6.87661 0.155375 8.10214 0.025 9.42513C0.00625 9.61263 0 9.80638 0 10.0001C0 10.1939 0.00625 10.3876 0.025 10.5751C0.156492 11.8977 0.780072 13.1225 1.77214 14.0069C2.76421 14.8913 4.05235 15.3708 5.38125 15.3501C6.79341 15.3601 8.15237 14.812 9.1625 13.8251L6.70625 10.9626L6.6625 11.0126C6.50524 11.1987 6.30889 11.3478 6.08744 11.4494C5.86598 11.5509 5.62487 11.6024 5.38125 11.6001C4.98816 11.6198 4.60229 11.4893 4.30175 11.2352C4.00121 10.9811 3.80845 10.6223 3.7625 10.2314C3.75625 10.1564 3.75 10.0751 3.75 10.0001C3.75 9.92513 3.75625 9.84388 3.7625 9.76888C3.80845 9.37799 4.00121 9.01916 4.30175 8.76504C4.60229 8.51091 4.98816 8.38047 5.38125 8.40013C5.62487 8.39787 5.86598 8.44935 6.08744 8.5509C6.30889 8.65244 6.50524 8.80156 6.6625 8.98763C7.20125 9.61763 9.75813 12.6014 10.675 13.6626C11.4125 14.4323 12.3607 14.9672 13.4008 15.2004C14.4409 15.4337 15.5267 15.3549 16.5222 14.9739C17.5177 14.5929 18.3787 13.9266 18.9974 13.0586C19.616 12.1905 19.9648 11.1592 20 10.0939V10.0001C20 9.80638 19.9937 9.61263 19.975 9.42513Z" fill="currentColor"/>
</svg>
